<svg width="323" height="238" viewBox="0 0 323 238" fill="none" xmlns="http://www.w3.org/2000/svg">
<path d="M308.994 137.144C308.994 137.144 326.371 132.186 322.029 105.213C317.682 78.244 286.732 82.0424 272.611 68.195C258.494 54.3476 265.009 17.4212 239.488 9.81958C213.966 2.21794 191.512 22.8544 177.761 30.182C164.01 37.5096 138.214 25.7008 126.944 30.5234C115.674 35.3459 131.425 61.5021 110.789 62.5407C90.1523 63.5792 70.0591 51.8378 58.659 58.5211C47.259 65.2044 50.5141 71.3973 50.5141 71.3973C50.5141 71.3973 86.2865 79.874 99.932 84.3359C132.512 94.9859 162.428 92.904 168.106 91.8222C173.785 90.7403 188.026 83.3695 203.172 84.3359C218.313 85.3024 246.008 92.9954 260.672 98.6497C275.337 104.304 287.824 121.685 295.156 128.2C302.489 134.715 309.004 137.139 309.004 137.139L308.994 137.144Z" fill="#C7ECFD"/>
<path d="M207.907 219.569C207.907 219.569 184.665 169.195 168.101 156.443C151.537 143.692 116.356 142.692 100.879 137.144C85.4012 131.6 72.2318 120.06 58.793 123.267C49.5182 125.484 35.0121 134.042 41.8252 149.111C48.6383 164.18 60.1538 164.997 74.8137 166.218C89.4737 167.44 104.951 166.44 105.36 172.844C105.768 179.248 88.0168 201.452 100.475 223.642C109.028 238.879 131.814 239.119 151.984 237.081C172.154 235.042 207.907 219.569 207.907 219.569Z" fill="#C7ECFD"/>
<path d="M151.878 30.1869C151.878 30.1869 142.103 43.039 143.459 66.844C144.291 81.4656 157.307 98.3421 169.798 97.7988C182.29 97.2554 188.805 84.7639 188.805 84.7639C188.805 84.7639 192.786 88.9278 191.156 93.8128C189.526 98.6979 182.285 105.218 182.285 105.218C182.285 105.218 183.477 106.516 186.501 108.218C189.526 109.925 191.545 109.382 191.545 109.382C191.545 109.382 196.945 106.122 199.118 100.693C201.291 95.2649 201.469 89.4711 201.469 89.4711C201.469 89.4711 194.954 86.0333 194.411 82.9561C193.868 79.8789 193.685 72.2772 195.497 71.3733C197.305 70.4694 200.128 71.556 202.739 69.7914C204.277 68.7529 207.806 65.7622 207.898 63.2283C207.989 60.6945 206.994 57.5259 205.455 57.5259C203.282 57.5259 201.022 58.9731 201.022 58.9731L198.849 42.8611L184.91 30.1917H151.873L151.878 30.1869Z" fill="white"/>
<path d="M190.685 110.901C189.603 110.901 187.886 110.651 185.795 109.473C182.66 107.708 181.362 106.338 181.227 106.189C180.967 105.905 180.828 105.53 180.847 105.146C180.866 104.761 181.035 104.4 181.323 104.141C181.395 104.078 188.3 97.8181 189.79 93.3513C190.574 91.0001 189.733 88.7836 188.91 87.3604C186.429 91.0674 180.068 98.7893 169.865 99.2316C169.644 99.2413 169.423 99.2461 169.207 99.2461C155.72 99.2461 142.853 81.4223 142.026 66.921C140.656 42.8612 150.325 29.8552 150.734 29.3119C151.008 28.9513 151.431 28.7445 151.883 28.7445H184.92C185.28 28.7445 185.627 28.8791 185.891 29.1195L199.83 41.789C200.08 42.0197 200.243 42.3275 200.291 42.664L202.195 56.7759C203.123 56.4057 204.287 56.0739 205.47 56.0739C205.989 56.0739 206.768 56.2374 207.508 57.0019C208.879 58.4251 209.427 61.2474 209.355 63.2669C209.22 67.1037 203.792 70.8156 203.561 70.9695C201.69 72.234 199.782 72.3013 198.253 72.3542C197.421 72.3831 196.7 72.4071 196.228 72.6139C195.459 73.5707 195.238 79.2346 195.849 82.6917C196.137 84.3313 199.714 86.8892 202.162 88.1826C202.647 88.4422 202.945 88.9519 202.931 89.5048C202.921 89.75 202.715 95.6159 200.474 101.217C198.147 107.03 192.545 110.463 192.305 110.608C192.19 110.68 192.065 110.733 191.935 110.766C191.829 110.795 191.396 110.896 190.699 110.896L190.685 110.901ZM184.444 105.165C185.069 105.636 185.973 106.261 187.213 106.958C189.165 108.059 190.54 108.05 191.021 108.002C192.002 107.353 196.06 104.463 197.786 100.15C199.354 96.2314 199.839 92.0483 199.984 90.2837C197.945 89.1105 193.541 86.2497 193.002 83.1965C192.983 83.086 191.372 71.8157 194.863 70.0704C195.897 69.5559 197.036 69.5126 198.147 69.4742C199.488 69.4261 200.758 69.3828 201.945 68.5798C203.734 67.3682 206.412 64.8103 206.47 63.1611C206.542 61.1465 205.83 59.2857 205.388 58.954C203.984 58.9876 202.335 59.8435 201.811 60.1752C201.397 60.4397 200.873 60.4733 200.426 60.2666C199.979 60.0598 199.671 59.6415 199.604 59.1511L197.503 43.5632L184.367 31.6198H152.648C150.878 34.3267 143.762 46.549 144.911 66.7479C145.661 79.9078 157.489 96.3516 169.207 96.3516C169.389 96.3516 169.567 96.3516 169.745 96.342C181.232 95.8419 187.473 84.1966 187.535 84.0812C187.752 83.6725 188.151 83.3889 188.612 83.3216C189.069 83.2591 189.536 83.4177 189.858 83.7543C190.045 83.9514 194.421 88.6105 192.536 94.26C191.209 98.2364 186.646 103.02 184.453 105.16L184.444 105.165Z" fill="#00071E"/>
<path d="M213.092 34.0911C211.341 19.2147 200.994 14.4595 194.455 14.9018C188.806 15.2721 182.608 12.3535 182.546 12.3247C182.502 12.3055 182.459 12.2862 182.416 12.2718C178.728 10.9303 175.891 8.66571 173.141 6.4732C169.386 3.47774 165.842 0.645752 160.741 0.645752C152.927 0.645752 140.229 4.46821 137.772 12.6709C136.267 17.7098 137.176 23.167 140.273 27.653C142.845 31.3793 146.485 33.8363 149.773 34.0718C151.879 34.2257 155.721 33.7882 160.169 33.2833C167.217 32.4852 177.867 31.2783 180.343 33.0766C182.3 34.4998 183.666 36.2644 184.983 37.9664C186.551 39.9955 188.032 41.9091 190.291 42.914C191.388 43.3996 192.378 43.7554 193.248 44.0679C195.451 44.8613 196.547 45.2988 197.335 46.597C198.167 47.9721 197.912 50.5493 197.686 52.8187C197.412 55.5642 197.177 57.9298 198.489 59.3818C198.917 59.853 199.701 60.4156 201.014 60.4156C202.826 60.4156 204.889 59.2183 206.822 57.0451C210.471 52.9389 214.298 44.467 213.082 34.0959L213.092 34.0911Z" fill="#00071E"/>
<path d="M173.405 74.3833C173.025 74.0323 172.487 73.9073 171.992 74.0612L158.053 78.4077C157.639 78.5375 157.303 78.8453 157.144 79.2491C156.981 79.653 157.009 80.105 157.221 80.4848C157.356 80.7252 160.226 85.7882 164.746 85.7882C165.332 85.7882 165.948 85.7016 166.587 85.5093C171.852 83.9322 173.742 76.0998 173.823 75.768C173.944 75.2632 173.78 74.7343 173.4 74.3833H173.405Z" fill="#00071E"/>
<path d="M157.624 74.9939C155.98 74.9939 154.34 74.1284 153.47 72.7196C153.297 72.4359 153.061 71.9936 153.047 71.4503C153.032 70.955 153.201 70.5367 153.326 70.229L157.61 59.6896C157.86 59.0693 158.066 58.4347 158.283 57.7663C158.374 57.4875 158.466 57.2038 158.557 56.9249C159.028 55.5258 158.74 54.117 158.735 54.1026C158.624 53.5833 158.956 53.0736 159.47 52.963C159.99 52.8524 160.499 53.1794 160.61 53.6939C160.629 53.7708 161.019 55.6171 160.379 57.5404C160.288 57.8096 160.201 58.0837 160.115 58.3577C159.898 59.0309 159.672 59.7329 159.393 60.4156L155.105 70.9598C155.047 71.0993 154.96 71.306 154.965 71.3974C154.965 71.4214 154.98 71.508 155.105 71.7147C155.725 72.7244 157.066 73.2822 158.225 73.0081C158.768 72.8783 159.326 72.5754 159.865 72.2773L160.841 71.7436C161.307 71.4887 161.889 71.6618 162.144 72.1282C162.399 72.5946 162.225 73.1764 161.764 73.4312L160.788 73.9649C160.168 74.3063 159.466 74.6861 158.667 74.8785C158.321 74.9602 157.97 74.9987 157.619 74.9987L157.624 74.9939Z" fill="#00071E"/>
<path d="M180.474 43.64C180.171 43.64 179.868 43.4958 179.685 43.2265C178.675 41.7697 176.868 40.8946 175.108 41.0004C174.569 41.034 174.122 40.6253 174.093 40.0964C174.064 39.5675 174.468 39.1108 174.997 39.0819C177.43 38.9425 179.882 40.1397 181.267 42.1303C181.57 42.5678 181.464 43.164 181.027 43.4669C180.858 43.5823 180.666 43.64 180.478 43.64H180.474Z" fill="#00071E"/>
<path d="M149.903 42.1158C149.615 42.1158 149.331 41.986 149.143 41.7408C148.821 41.3177 148.898 40.7166 149.316 40.3897C150.6 39.3992 152.269 38.928 153.884 39.1011C154.413 39.1588 154.793 39.63 154.74 40.1589C154.687 40.6878 154.211 41.0676 153.682 41.0147C152.552 40.8945 151.394 41.2215 150.494 41.9139C150.321 42.0485 150.115 42.1158 149.908 42.1158H149.903Z" fill="#00071E"/>
<path d="M175.761 72.3591C175.059 72.3591 174.348 72.2966 173.621 72.1716C165.558 70.7964 161.774 65.4161 162.37 56.1845C162.952 47.1741 172.097 44.7508 172.189 44.7268L172.386 44.6979C177.093 44.5056 182.353 46.549 185.445 49.7801C187.676 52.112 188.714 54.9392 188.455 57.9587C188.012 63.089 185.868 67.4932 182.569 70.0367C180.588 71.5705 178.266 72.3543 175.761 72.3543V72.3591ZM172.568 46.6164C171.641 46.8808 164.755 49.0733 164.289 56.3095C163.75 64.618 166.823 69.0559 173.944 70.2723C176.756 70.7532 179.261 70.1618 181.391 68.5174C184.223 66.3297 186.147 62.3197 186.536 57.7953C186.752 55.3095 185.916 53.0593 184.05 51.112C181.387 48.3232 176.665 46.4865 172.568 46.6164Z" fill="#00071E"/>
<path d="M149.902 43.895C144.508 43.1449 137.262 48.3762 137.396 55.8432C137.531 63.3102 140.926 67.2481 145.541 68.0606C150.157 68.8732 155.85 66.0124 158.499 60.0455C161.149 54.0786 155.749 44.7076 149.898 43.895H149.902Z" fill="white"/>
<path d="M147.085 69.157C146.498 69.157 145.926 69.1089 145.373 69.0127C142.748 68.5511 136.622 66.3394 136.435 55.8625C136.367 52.1795 137.935 48.7321 140.844 46.1549C143.541 43.7653 147.065 42.5344 150.032 42.9479C153.052 43.3662 156.177 45.8808 158.187 49.5014C160.293 53.2902 160.735 57.3819 159.374 60.4398C156.735 66.3731 151.503 69.157 147.08 69.157H147.085ZM148.844 44.7894C146.623 44.7894 144.128 45.8135 142.123 47.5925C139.642 49.7946 138.305 52.718 138.363 55.8288C138.478 62.1996 141.156 66.3154 145.714 67.1183C149.676 67.8155 155.042 65.4788 157.629 59.6609C158.73 57.1847 158.302 53.6508 156.513 50.4389C154.787 47.3329 152.205 45.1933 149.772 44.8567C149.47 44.8134 149.162 44.7942 148.849 44.7942L148.844 44.7894Z" fill="#00071E"/>
<path d="M163.716 54.8575H158.879C158.35 54.8575 157.917 54.4247 157.917 53.8958C157.917 53.3669 158.35 52.9342 158.879 52.9342H163.716C164.244 52.9342 164.677 53.3669 164.677 53.8958C164.677 54.4247 164.244 54.8575 163.716 54.8575Z" fill="#00071E"/>
<path d="M147.898 55.7182C147.696 56.122 147.581 56.5596 147.484 57.0019C147.364 57.5549 147.268 58.1318 147.412 58.6751C147.696 59.7474 148.932 60.4157 150.013 60.1801C152.288 59.6801 152.187 57.1702 151.687 55.4297C151.076 53.3045 148.744 54.0113 147.898 55.723V55.7182Z" fill="#00071E"/>
<path d="M172.212 57.9585C171.996 58.3528 171.857 58.7855 171.741 59.2183C171.597 59.7616 171.472 60.3338 171.592 60.8867C171.823 61.9685 173.03 62.6945 174.121 62.507C176.415 62.1128 176.429 59.6029 176.011 57.8383C175.501 55.6891 173.136 56.2853 172.212 57.9537V57.9585Z" fill="#00071E"/>
<path d="M187.31 56.0452C186.796 56.0452 186.373 55.6413 186.349 55.1221C186.325 54.5932 186.738 54.1412 187.272 54.122L198.907 53.6412C199.446 53.6219 199.888 54.0306 199.908 54.5643C199.932 55.0932 199.518 55.5452 198.984 55.5644L187.349 56.0452C187.349 56.0452 187.32 56.0452 187.31 56.0452Z" fill="#00071E"/>
<path d="M190.114 84.1532C189.888 83.6628 189.407 83.3407 188.868 83.3166C188.335 83.2974 187.825 83.5715 187.556 84.0378C187.532 84.0811 185.137 88.2017 182.762 90.2499C180.305 92.3703 175.555 95.0917 175.506 95.1206C175.175 95.3129 174.93 95.6254 174.829 95.9957C174.728 96.3659 174.78 96.7601 174.973 97.0967C174.992 97.1256 176.747 100.159 177.954 102.299C179.3 104.694 181.315 106.285 181.401 106.348C181.661 106.554 181.978 106.655 182.286 106.655C182.647 106.655 183.007 106.521 183.286 106.251C184.772 104.823 192.205 97.5102 192.59 93.9618C192.97 90.4567 190.407 84.7831 190.114 84.1484V84.1532Z" fill="#00071E"/>
<path d="M182.56 121.777C182.56 121.777 187.036 119.204 189.349 116.074C192.157 112.271 191.551 109.377 191.551 109.377C191.551 109.377 186.272 109.829 181.146 104.155C178.997 101.775 176.223 96.3755 176.223 96.3755C176.223 96.3755 171.362 97.8179 169.799 97.7939C168.236 97.7698 166.63 106.348 170.525 112.367C175.622 120.243 182.56 121.782 182.56 121.782V121.777Z" fill="white"/>
<path d="M182.56 123.219C182.454 123.219 182.353 123.21 182.247 123.186C181.939 123.118 174.67 121.426 169.313 113.146C165.702 107.564 166.376 100.275 167.765 97.7602C168.419 96.5774 169.246 96.337 169.818 96.3467C169.828 96.3467 169.837 96.3467 169.842 96.3467C170.799 96.3467 173.895 95.5533 175.809 94.986C176.473 94.7888 177.184 95.0917 177.502 95.7072C177.53 95.7601 180.213 100.967 182.214 103.179C186.743 108.194 191.243 107.944 191.436 107.929C192.147 107.881 192.811 108.367 192.96 109.074C192.989 109.218 193.662 112.651 190.508 116.921C188.046 120.257 183.473 122.907 183.276 123.017C183.055 123.142 182.81 123.21 182.56 123.21V123.219ZM170.251 99.2171C169.491 100.611 168.674 106.848 171.737 111.584C175.636 117.608 180.723 119.685 182.353 120.219C183.545 119.474 186.526 117.474 188.185 115.223C189.58 113.334 190.008 111.752 190.123 110.761C187.988 110.511 183.964 109.434 180.074 105.126C178.401 103.27 176.439 99.8229 175.497 98.0872C174.035 98.4959 171.66 99.1065 170.251 99.2219V99.2171Z" fill="#00071E"/>
<path d="M213.24 103.011C211.399 109.665 205.364 115.44 205.364 115.44C205.364 115.44 201.018 115.983 196.768 113.81C192.512 111.637 191.546 109.377 191.546 109.377C191.546 109.377 198.306 104.035 200.023 99.3327C201.744 94.6255 201.47 89.4664 201.47 89.4664C201.47 89.4664 202.206 87.9278 207.903 88.1105C213.601 88.2932 214.49 90.4617 214.49 90.4617C214.49 90.4617 215.683 94.1736 213.24 103.011Z" fill="white"/>
<path d="M204.081 116.945C202.316 116.945 199.205 116.676 196.114 115.098C191.527 112.757 190.344 110.228 190.224 109.944C189.969 109.348 190.147 108.651 190.656 108.247C190.719 108.194 197.119 103.102 198.676 98.8374C200.268 94.4764 200.042 89.5913 200.037 89.5433C200.023 89.3029 200.071 89.0625 200.176 88.8461C200.518 88.1297 201.96 86.4709 207.956 86.668C214.264 86.8699 215.625 89.4086 215.832 89.9135C215.846 89.9471 215.861 89.9856 215.87 90.0193C216.005 90.4424 217.12 94.3995 214.635 103.395C212.711 110.353 206.624 116.238 206.365 116.483C206.139 116.7 205.855 116.834 205.547 116.873C205.485 116.882 204.941 116.945 204.081 116.945ZM193.484 109.641C194.113 110.358 195.306 111.444 197.426 112.526C200.446 114.07 203.571 114.098 204.725 114.041C206.004 112.718 210.394 107.906 211.855 102.626C213.856 95.3948 213.312 91.7887 213.154 91.0338C212.904 90.7453 211.721 89.6731 207.865 89.5481C204.826 89.4519 203.47 89.875 202.936 90.1251C202.946 91.779 202.811 95.914 201.383 99.823C199.955 103.732 195.527 107.877 193.484 109.641Z" fill="#00071E"/>
<path d="M312.798 167.656C312.336 167.656 311.88 167.435 311.601 167.021C311.529 166.911 304.163 155.992 295.561 142.558C287.315 129.677 272.626 113.536 258.399 106.511C244.672 99.7365 214.928 96.4573 214.63 96.4237C213.837 96.3371 213.265 95.6255 213.351 94.8322C213.438 94.0388 214.15 93.4667 214.938 93.5532C216.179 93.6878 245.489 96.9189 259.673 103.92C274.4 111.189 289.531 127.782 297.989 141C306.567 154.405 313.918 165.3 313.99 165.406C314.437 166.065 314.264 166.964 313.601 167.406C313.356 167.574 313.072 167.651 312.793 167.651L312.798 167.656Z" fill="#00071E"/>
<path d="M295.146 190.466C294.8 190.466 294.454 190.341 294.175 190.091C288.184 184.643 273.663 165.406 263.061 151.356L262.633 150.794C254.07 139.447 250.647 138.644 250.291 138.591C249.613 138.697 248.93 138.298 248.704 137.62C248.454 136.865 248.863 136.047 249.618 135.797C250.892 135.374 254.94 135.812 264.937 149.058L265.364 149.621C275.899 163.579 290.323 182.691 296.117 187.956C296.709 188.49 296.752 189.403 296.213 189.994C295.93 190.307 295.535 190.466 295.146 190.466Z" fill="#00071E"/>
<path d="M214.789 217.074C214.269 217.074 213.769 216.795 213.515 216.305C213.202 215.713 182.05 157.073 170.746 149.491C162.64 144.053 134.075 138.033 115.174 134.047C107.149 132.355 100.221 130.893 96.5569 129.859C84.1808 126.364 66.0013 120.397 65.8186 120.339C65.5638 120.253 65.333 120.099 65.1599 119.892C64.78 119.44 63.4049 117.055 61.5826 105.434C61.1066 102.395 61.1884 99.1835 61.8327 95.89C61.9865 95.1062 62.7462 94.5966 63.5251 94.7504C64.3088 94.9043 64.8185 95.6592 64.6646 96.4429C64.0877 99.4047 64.0107 102.28 64.4338 104.987C65.8042 113.738 66.8668 116.834 67.2706 117.777C70.4152 118.801 86.2387 123.945 97.3407 127.08C100.908 128.09 107.798 129.542 115.77 131.22C136.032 135.49 163.784 141.341 172.357 147.092C184.262 155.078 214.774 212.511 216.068 214.949C216.443 215.651 216.174 216.526 215.467 216.901C215.25 217.016 215.02 217.069 214.794 217.069L214.789 217.074Z" fill="#00071E"/>
<path d="M144.57 100.953C143.45 100.953 142.45 100.924 141.632 100.862C140.839 100.799 140.243 100.107 140.305 99.3134C140.368 98.52 141.051 97.9286 141.853 97.9863C148.7 98.5104 169.443 96.3804 169.649 96.3612C170.433 96.2746 171.149 96.8564 171.231 97.6498C171.313 98.4431 170.736 99.1499 169.943 99.2316C169.178 99.3086 153.172 100.953 144.565 100.953H144.57Z" fill="#00071E"/>
<path d="M119.453 103.722C119.063 103.722 118.679 103.568 118.395 103.261C117.856 102.674 117.89 101.765 118.477 101.222C121.28 98.6305 130.829 94.1782 131.906 93.6781C132.627 93.3415 133.488 93.6589 133.819 94.3801C134.151 95.1013 133.839 95.962 133.117 96.2937C130.3 97.5967 122.525 101.405 120.433 103.333C120.155 103.588 119.804 103.717 119.453 103.717V103.722Z" fill="#00071E"/>
<path d="M130.338 110.901C130.074 110.901 129.805 110.829 129.569 110.675C128.896 110.247 128.699 109.358 129.122 108.684C131.103 105.559 136.214 100.919 136.43 100.727C137.022 100.193 137.93 100.237 138.469 100.828C139.003 101.419 138.959 102.333 138.368 102.867C138.32 102.91 133.334 107.439 131.56 110.233C131.286 110.665 130.819 110.901 130.338 110.901Z" fill="#00071E"/>
<path d="M113.332 91.9427C112.702 91.9427 112.12 91.5243 111.942 90.8849C111.731 90.1156 112.178 89.3222 112.947 89.1107C117.491 87.8509 131.939 83.4275 132.088 83.3842C132.848 83.1534 133.656 83.5813 133.891 84.341C134.122 85.1007 133.694 85.9085 132.934 86.1441C132.79 86.1873 118.303 90.6204 113.721 91.8946C113.591 91.9282 113.461 91.9475 113.336 91.9475L113.332 91.9427Z" fill="#00071E"/>
<path d="M15.0779 88.1585C14.1451 87.87 13.2027 88.5768 13.2123 89.5529C13.2748 94.6735 13.2364 108.502 11.2747 117.007C8.83213 127.595 3.94227 158.006 1.7738 160.449C-0.39466 162.891 8.56288 162.348 14.5346 163.709C20.5063 165.069 53.3602 179.484 56.0768 180.287C58.7934 181.085 70.4675 168.324 71.5541 153.934C72.6408 139.543 72.6408 122.166 72.91 116.738C73.1264 112.44 74.7035 103.573 75.3478 100.063C75.4968 99.2605 74.9487 98.4912 74.1361 98.3758C67.5153 97.419 40.7629 93.558 34.3537 92.8464C28.6849 92.2166 19.1263 89.4086 15.0779 88.1633V88.1585Z" fill="white"/>
<path d="M56.3414 181.763C56.1058 181.763 55.8846 181.729 55.6682 181.667C54.6825 181.378 50.7639 179.739 43.9268 176.864C33.5893 172.522 17.9629 165.964 14.2174 165.113C12.2172 164.656 9.78427 164.42 7.63984 164.204C3.37503 163.781 0.797879 163.526 0.134357 161.833C-0.0387354 161.386 -0.197404 160.492 0.696908 159.487C1.9374 157.828 4.8367 142.49 6.75995 132.34C7.93314 126.133 9.04381 120.267 9.87562 116.676C11.7844 108.401 11.8421 94.962 11.7748 89.5673C11.7652 88.649 12.1931 87.7739 12.9288 87.2258C13.6644 86.6776 14.626 86.5093 15.5059 86.7786C19.3669 87.9614 28.9398 90.7838 34.5173 91.404C40.864 92.1108 66.6067 95.8179 74.3478 96.9382C75.1219 97.0488 75.8239 97.4767 76.2758 98.1114C76.7326 98.746 76.9105 99.549 76.7663 100.318C76.1076 103.876 74.5593 112.598 74.3478 116.801C74.266 118.464 74.2084 121.267 74.1362 124.816C73.9776 132.485 73.742 144.067 72.9919 154.035C72.0351 166.733 63.4622 177.647 59.0868 180.672C58.0338 181.398 57.1299 181.758 56.3414 181.758V181.763ZM3.2981 160.728C4.38474 160.987 6.3753 161.184 7.92352 161.338C10.1545 161.559 12.6788 161.809 14.8568 162.305C18.8476 163.213 33.9884 169.57 45.0423 174.21C50.5331 176.513 55.298 178.513 56.3894 178.873C58.8416 178.489 69.1262 166.935 70.1166 153.828C70.8619 143.942 71.0975 132.403 71.2562 124.768C71.3283 121.195 71.386 118.373 71.4725 116.666C71.6937 112.291 73.266 103.415 73.9343 99.8038C68.4338 99.0057 40.662 94.9957 34.1999 94.2793C28.3821 93.6302 18.5976 90.7501 14.6597 89.5433C14.7318 95.039 14.6693 108.757 12.6932 117.334C11.8758 120.873 10.7747 126.705 9.60156 132.889C6.39934 149.804 4.68765 158.059 3.30291 160.732L3.2981 160.728Z" fill="#00071E"/>
<path d="M66.262 84.9658C66.262 84.9658 52.4146 80.6914 46.3034 80.0087C40.1923 79.3307 31.8694 80.6433 29.7875 81.6819C28.547 82.3021 25.3977 88.2209 23.7677 92.1588C22.1378 96.0966 21.9358 99.7604 22.0032 101.121C22.0705 102.482 24.0274 103.16 25.2486 102.342C25.9939 101.842 26.9988 96.3467 29.5327 92.6348C31.1434 90.2788 30.9847 91.1202 30.7107 91.6299C30.5328 91.9568 29.576 92.0386 28.1095 95.3225C26.0516 99.9239 24.4986 106.756 26.0756 107.434C27.9748 108.247 29.1048 106.963 29.5134 106.309C29.9221 105.655 30.3693 104.516 30.3693 104.516C30.3693 104.516 29.4654 108.261 30.6866 109.882C32.8695 112.771 35.3024 109.656 35.3024 109.656C35.4659 109.983 36.2785 110.016 37.2016 110.665C38.3652 111.483 40.1634 107.333 40.5962 105.559C41.1347 103.352 42.3127 101.881 43.4185 100.381C45.1062 98.0968 46.2986 95.5822 47.5199 94.9956C48.7411 94.409 63.2376 96.6592 63.2376 96.6592" fill="white"/>
<path d="M32.7581 112.545H32.7292C31.8926 112.541 30.6569 112.223 29.5415 110.742C29.128 110.199 28.8827 109.531 28.7481 108.834C27.849 109.223 26.7527 109.285 25.5074 108.757C25.118 108.593 24.5939 108.223 24.2766 107.415C23.9688 106.627 23.9352 105.468 24.0794 104.136C23.4688 104.146 22.8533 104.011 22.2956 103.727C21.2619 103.208 20.6128 102.256 20.5599 101.189C20.5358 100.727 20.3964 96.5295 22.4302 91.606C22.4735 91.505 26.7287 81.5955 29.1376 80.3934C31.5561 79.1818 40.278 77.8884 46.4612 78.576C52.6349 79.2635 66.1121 83.4081 66.6842 83.586C67.4439 83.8216 67.8718 84.6294 67.6362 85.3891C67.4006 86.1488 66.5929 86.5767 65.8332 86.3411C65.6938 86.2978 52.0483 82.0955 46.1439 81.4416C40.3117 80.7925 32.335 82.0619 30.4694 82.9514C29.604 83.6245 26.8681 88.4326 25.0987 92.707C23.6419 96.2314 23.3726 99.6067 23.4399 101.044C23.4544 101.064 23.5601 101.165 23.7669 101.217C23.9448 101.266 24.1323 101.261 24.2862 101.213C24.4641 100.838 24.7478 99.9914 24.9882 99.2894C25.7142 97.1401 26.7095 94.2024 28.3346 91.8175C29.277 90.4328 30.2579 89.0048 31.6041 89.827C31.8205 89.9568 32.8494 90.6924 31.9744 92.3128C31.7868 92.6638 31.5272 92.8609 31.3349 93.0052C31.056 93.2167 30.3973 93.7168 29.4164 95.9093C27.5268 100.131 26.6037 104.92 26.9018 106.203C27.2624 106.304 27.7961 106.314 28.2865 105.535C28.575 105.074 28.9116 104.266 29.0174 103.992C29.2914 103.285 30.0655 102.905 30.7916 103.131C31.5176 103.357 31.9407 104.107 31.7628 104.848C31.4551 106.141 31.306 108.309 31.8301 109.002C32.0561 109.3 32.3927 109.651 32.734 109.656H32.7437C33.2629 109.656 33.9313 109.035 34.1621 108.747C34.4698 108.367 34.9554 108.16 35.441 108.213C35.768 108.247 36.0709 108.391 36.3017 108.612C36.345 108.632 36.393 108.646 36.4459 108.665C36.7056 108.766 37.0517 108.896 37.4412 109.108C38.023 108.353 38.874 106.487 39.1866 105.199C39.7539 102.867 40.9559 101.251 42.0185 99.8231L42.2541 99.5057C42.7926 98.7749 43.2831 98.0152 43.7543 97.2844C44.8457 95.5871 45.7112 94.2456 46.8892 93.6783C47.3315 93.4667 48.5143 92.8946 63.4532 95.2169C64.2417 95.3371 64.7802 96.0775 64.6552 96.8613C64.535 97.6498 63.7945 98.1883 63.006 98.0633C56.6593 97.0776 49.4615 96.1737 48.0479 96.3276C47.5815 96.6545 46.7786 97.9094 46.1776 98.8422C45.7016 99.5779 45.1679 100.414 44.5717 101.217L44.3312 101.54C43.3504 102.862 42.4176 104.112 41.9897 105.877C41.9753 105.929 40.5617 111.185 38.2538 112.055C37.6095 112.3 36.9171 112.214 36.3642 111.824C36.0853 111.627 35.8161 111.512 35.5516 111.406C34.8929 111.949 33.9168 112.531 32.7437 112.531L32.7581 112.545Z" fill="#00071E"/>
<path d="M111.062 97.8181C110.942 97.8181 110.817 97.8037 110.697 97.77C100.658 95.1304 75.3573 86.0526 69.8039 84.0524C68.5778 85.918 65.7939 90.6348 64.6592 96.4478C64.5053 97.2315 63.7553 97.7412 62.9667 97.5873C62.183 97.4335 61.6733 96.6786 61.8272 95.8948C63.4283 87.6922 67.9095 81.6964 68.097 81.4464C68.4768 80.9416 69.1452 80.7444 69.7414 80.9608C70.0491 81.0714 100.489 92.106 111.428 94.9813C112.197 95.1832 112.659 95.9718 112.457 96.7411C112.288 97.3902 111.702 97.8181 111.062 97.8181Z" fill="#00071E"/>
<path d="M29.9445 107.747C29.8435 107.747 29.7378 107.737 29.632 107.713C28.8531 107.54 28.3626 106.771 28.5357 105.992C29.8435 100.059 30.9638 96.8516 34.5074 92.3704C35.0027 91.7453 35.9114 91.6395 36.5316 92.1348C37.1567 92.63 37.2625 93.5339 36.7672 94.159C33.6179 98.1353 32.613 100.881 31.3485 106.612C31.1994 107.285 30.6032 107.742 29.9397 107.742L29.9445 107.747Z" fill="#00071E"/>
<path d="M35.3057 111.093C34.6422 111.093 34.0412 110.632 33.8969 109.954C32.5314 103.626 37.979 95.3226 39.0368 94.0629C39.5465 93.4522 40.46 93.3705 41.0706 93.885C41.6813 94.3946 41.763 95.3082 41.2485 95.9188C39.9984 97.4093 35.6855 104.564 36.7193 109.348C36.8876 110.127 36.3923 110.896 35.6134 111.064C35.5125 111.088 35.4067 111.098 35.3057 111.098V111.093Z" fill="#00071E"/>
<path d="M64.9048 108.266C64.9048 108.266 64.8567 108.266 64.8327 108.266C60.063 107.92 55.279 107.237 50.6055 106.247C50.0862 106.136 49.7544 105.626 49.865 105.107C49.9756 104.588 50.4853 104.256 51.0045 104.367C55.5915 105.338 60.2938 106.006 64.9721 106.348C65.501 106.386 65.9001 106.848 65.8616 107.376C65.8232 107.881 65.4001 108.266 64.9048 108.266Z" fill="#00071E"/>
<path d="M64.6879 113.262C64.6206 113.262 64.5485 113.252 64.4763 113.238C58.0383 111.805 51.3838 110.319 44.7197 109.978C44.1909 109.949 43.7822 109.497 43.811 108.968C43.8399 108.439 44.3062 108.03 44.8207 108.059C51.6483 108.41 58.3844 109.91 64.8994 111.362C65.4187 111.478 65.7457 111.992 65.6303 112.512C65.5293 112.959 65.135 113.267 64.6927 113.267L64.6879 113.262Z" fill="#00071E"/>
<path d="M58.4519 153.241C58.3942 153.241 58.3317 153.237 58.274 153.227C43.7967 150.51 29.5118 146.385 15.8134 140.961C15.3182 140.764 15.0778 140.206 15.2749 139.711C15.4721 139.216 16.0298 138.976 16.525 139.173C30.108 144.553 44.2727 148.645 58.6298 151.337C59.1539 151.433 59.4953 151.938 59.3991 152.458C59.3126 152.919 58.9087 153.241 58.4567 153.241H58.4519Z" fill="#00071E"/>
<path d="M57.0392 160.91C56.943 160.91 56.8469 160.896 56.7555 160.867L14.4392 147.707C13.9344 147.549 13.6507 147.01 13.8045 146.505C13.9632 145.996 14.5017 145.717 15.0066 145.87L57.3229 159.03C57.8277 159.189 58.1114 159.728 57.9576 160.232C57.8277 160.646 57.4479 160.91 57.0392 160.91Z" fill="#00071E"/>
<path d="M55.3801 166.968C55.2839 166.968 55.1877 166.954 55.0916 166.925L12.8233 153.616C12.3185 153.457 12.0348 152.919 12.1935 152.409C12.3521 151.9 12.8955 151.621 13.4003 151.779L55.6685 165.088C56.1734 165.247 56.4571 165.786 56.2984 166.295C56.1686 166.704 55.7888 166.968 55.3801 166.968Z" fill="#00071E"/>
<path d="M29.455 122.546C29.2627 122.512 29.0463 122.46 28.8155 122.407C27.6904 122.137 25.9884 121.734 25.1565 123.032C24.6998 123.743 24.6757 124.844 24.6902 126.325C24.6902 126.777 24.6998 127.2 24.6709 127.455C24.5796 128.297 23.7862 134.225 23.517 135.225C23.4545 135.331 23.4112 135.451 23.3968 135.576C23.3247 136.1 23.6901 136.586 24.2142 136.658H24.2238C24.7815 136.735 25.4691 136.966 26.1326 137.192C26.7288 137.394 27.3442 137.605 27.926 137.721C27.9885 137.735 28.0558 137.74 28.1184 137.74C28.3588 137.74 28.5992 137.648 28.7771 137.48C29.003 137.264 29.1136 136.956 29.0704 136.644C28.7626 134.475 29.1713 132.158 29.6041 129.71C29.9695 127.648 30.3493 125.513 30.258 123.45C30.2387 122.998 29.907 122.623 29.4598 122.546H29.455ZM24.4642 134.754C24.3969 134.744 24.3344 134.744 24.267 134.754C24.2911 134.754 24.3103 134.749 24.3344 134.749C24.3728 134.749 24.4161 134.749 24.4594 134.759L24.4642 134.754ZM24.0218 134.802C24.0843 134.778 24.1468 134.768 24.219 134.759C24.1516 134.768 24.0843 134.783 24.0218 134.802Z" fill="#00071E"/>
<path d="M39.5571 117.978C39.0186 117.397 36.1626 117.103 36.1289 117.103C34.6913 117.161 34.2489 117.541 34.0662 118.868C34.047 119.007 34.0229 119.166 33.9941 119.354C33.7681 120.681 33.5469 122.008 33.3258 123.34L30.9602 137.423C30.8736 137.927 31.2006 138.413 31.7006 138.519L35.9173 139.447C35.9847 139.461 36.0568 139.471 36.1241 139.471C36.3164 139.471 36.5039 139.413 36.6674 139.303C36.8838 139.153 37.0328 138.923 37.0761 138.658C38.1291 132.071 39.0522 125.378 39.8167 118.753C39.8504 118.474 39.7494 118.18 39.5619 117.974L39.5571 117.978Z" fill="#00071E"/>
<path d="M46.8745 122.513C46.8745 122.513 46.8312 122.508 46.812 122.503C46.7687 122.493 46.6966 122.479 46.6005 122.46C43.5425 121.844 42.3741 121.854 41.7923 122.493C41.1192 123.239 41.0423 124.792 41.0086 126.912C40.999 127.446 40.9942 127.951 40.9605 128.21C40.5086 131.85 39.9172 135.519 39.2007 139.115C39.1479 139.375 39.2056 139.649 39.3642 139.865C39.5229 140.081 39.7585 140.226 40.0229 140.259L44.1772 140.793C44.2204 140.798 44.2589 140.803 44.3022 140.803C44.7301 140.803 45.1147 140.519 45.2301 140.096C46.187 136.591 46.4418 133.999 46.7639 130.72L46.8697 129.624C47.0284 128.018 47.4082 125.157 47.6679 123.623C47.7544 123.099 47.4034 122.604 46.8793 122.517L46.8745 122.513Z" fill="#00071E"/>
<path d="M54.0346 129.494C53.3374 129.277 51.5632 128.835 50.1977 129.335C48.7601 129.859 48.6783 130.96 48.6062 131.85C48.5918 132.057 48.5725 132.287 48.5389 132.533C48.2264 134.816 47.8465 137.509 47.409 140.173C47.3272 140.653 47.6253 141.12 48.0917 141.254C49.5438 141.673 51.0247 142.033 52.5056 142.332C52.5681 142.346 52.6306 142.351 52.6931 142.351C52.8854 142.351 53.073 142.293 53.2364 142.182C53.4528 142.038 53.597 141.807 53.6403 141.553C54.2509 138.072 54.7173 134.523 55.0299 130.999C55.0443 130.816 55.0827 130.398 54.7991 130.008C54.5442 129.652 54.1692 129.537 54.0298 129.494H54.0346Z" fill="#00071E"/>
<path d="M64.4206 118.618C64.3052 118.594 64.1177 118.546 63.8965 118.483C61.4203 117.834 60.1077 117.628 59.3624 118.233C58.7807 118.705 58.6364 119.7 58.5162 122.258C58.5018 122.604 58.4826 122.96 58.4681 123.085C58.2277 124.945 57.9489 126.561 57.6556 128.268C57.4969 129.186 57.3334 130.124 57.1748 131.134C57.0017 132.215 56.7805 133.321 56.5689 134.389C56.0593 136.942 55.5304 139.581 55.564 142.269C55.5688 142.755 55.9343 143.159 56.4199 143.212C57.5209 143.337 58.6172 143.572 59.6702 143.923C59.7663 143.957 59.8673 143.971 59.9731 143.971C60.026 143.971 60.0789 143.971 60.1317 143.957L61.0357 143.803C61.3819 143.745 61.6703 143.5 61.7857 143.168C62.3002 141.683 62.305 140.158 62.3098 138.677C62.3098 138.192 62.3098 137.711 62.3339 137.23C62.4012 135.735 62.6656 134.201 62.9205 132.715L65.1707 119.709C65.2572 119.205 64.9303 118.714 64.4302 118.608L64.4206 118.618Z" fill="#00071E"/>
<path d="M21.6901 127.013L19.8534 126.696C19.8005 126.686 19.7236 126.667 19.6418 126.643C19.036 126.484 18.1177 126.248 17.5311 126.902C17.108 127.369 17.1512 128.027 17.1849 128.604C17.1945 128.725 17.2041 128.835 17.1993 128.902C17.1512 129.311 17.0551 129.768 16.8916 130.33C16.8195 130.585 16.7425 130.835 16.6608 131.09C16.3964 131.936 16.1271 132.816 16.0309 133.759C15.9829 134.254 16.3194 134.701 16.805 134.797C17.257 134.884 17.7378 135.066 18.2475 135.254C18.9014 135.499 19.5793 135.754 20.3054 135.85C20.3486 135.855 20.3919 135.86 20.4352 135.86C20.8198 135.86 21.1756 135.624 21.3247 135.259C21.8199 134.042 21.9113 132.648 22.0026 131.297C22.0796 130.177 22.1469 129.119 22.4354 128.253C22.5219 127.989 22.4931 127.696 22.3488 127.455C22.2046 127.215 21.9642 127.051 21.6853 127.003L21.6901 127.013Z" fill="#00071E"/>
</svg>
